<?xml version="1.0" encoding="utf-8"?>
<!-- Generator: Adobe Illustrator 25.4.1, SVG Export Plug-In . SVG Version: 6.00 Build 0)  -->
<svg version="1.1" id="Layer_1" xmlns="http://www.w3.org/2000/svg" xmlns:xlink="http://www.w3.org/1999/xlink" x="0px" y="0px"
	 viewBox="0 0 30 30" style="enable-background:new 0 0 30 30;" xml:space="preserve">
<g>
	<path d="M15,1c7.7,0,14,6.3,14,14s-6.3,14-14,14S1,22.7,1,15S7.3,1,15,1 M15,0C6.7,0,0,6.7,0,15s6.7,15,15,15s15-6.7,15-15
		S23.3,0,15,0L15,0z"/>
</g>
<g>
	<g>
		<path d="M30,15c0-1.1-0.1-2.1-0.3-3.2L11.8,29.7c1,0.2,2.1,0.3,3.2,0.3c1.3,0,2.5-0.2,3.6-0.5l10.9-10.9C29.8,17.5,30,16.3,30,15z
			"/>
	</g>
	<g>
		<path d="M20.5,1c-1.7-0.7-3.5-1-5.5-1c-0.1,0-0.1,0-0.2,0L0,14.8c0,0.1,0,0.1,0,0.2c0,1.9,0.4,3.8,1,5.5L20.5,1z"/>
	</g>
	<g>
		<path d="M7.6,27.3L27.7,7.1c-0.8-1.4-1.9-2.6-3.1-3.6L4.2,23.9l-3-3c1.5,3.5,4.3,6.3,7.8,7.8L7.6,27.3z"/>
	</g>
</g>
</svg>
