<?xml version="1.0" encoding="utf-8"?>
<!-- Generator: Adobe Illustrator 25.4.1, SVG Export Plug-In . SVG Version: 6.00 Build 0)  -->
<svg version="1.1" id="Layer_1" xmlns="http://www.w3.org/2000/svg" xmlns:xlink="http://www.w3.org/1999/xlink" x="0px" y="0px"
	 viewBox="0 0 30 30" style="enable-background:new 0 0 30 30;" xml:space="preserve">
<style type="text/css">
	.st0{fill:none;}
</style>
<g>
	<path class="st0" d="M29,14.6c-0.7,0.1-1.5,0-2.2-0.3c-2.1-0.9-3-3.3-2.1-5.4c0.4-0.8,1-1.5,1.7-1.9C23.9,3.4,19.7,1,15,1
		c-1.1,0-2.1,0.1-3.1,0.4c0,0.6-0.1,1.2-0.3,1.7c-0.9,2.1-3.3,3-5.4,2.1C5.9,5.1,5.7,4.9,5.5,4.8C2.7,7.4,1,11,1,15
		c0,0.2,0,0.5,0,0.7c0.1,0,0.3,0.1,0.4,0.1c2.1,0.9,3,3.3,2.1,5.4c-0.1,0.3-0.3,0.6-0.6,0.9c0.9,1.6,2.2,3,3.7,4.1
		c-0.6-1.1-0.8-2.5-0.2-3.7c0.9-2.1,3.3-3,5.4-2.1c2.1,0.9,3,3.3,2.1,5.4c-0.6,1.5-2,2.3-3.5,2.4c1.5,0.5,3,0.8,4.6,0.8
		c0.5,0,1,0,1.4-0.1c0-0.6,0.1-1.3,0.3-1.9c0.9-2.1,3.3-3,5.4-2.1c0.6,0.3,1.1,0.6,1.4,1.1c1-0.8,1.9-1.7,2.7-2.8
		c-0.3-0.9-0.2-1.9,0.2-2.8c0.4-1,1.2-1.7,2.2-2.1c0.3-1.1,0.4-2.2,0.4-3.4C29,14.9,29,14.7,29,14.6z M13.2,14.7
		c-0.9,2.1-3.3,3-5.4,2.1c-2.1-0.9-3-3.3-2.1-5.4c0.9-2.1,3.3-3,5.4-2.1C13.2,10.2,14.1,12.6,13.2,14.7z M14.4,4.4
		c0.9-2.1,3.3-3,5.4-2.1c2.1,0.9,3,3.3,2.1,5.4s-3.3,3-5.4,2.1C14.4,8.8,13.5,6.4,14.4,4.4z M23.5,19.2c-0.9,2.1-3.3,3-5.4,2.1
		c-2.1-0.9-3-3.3-2.1-5.4c0.9-2.1,3.3-3,5.4-2.1C23.5,14.8,24.4,17.2,23.5,19.2z"/>
	<path d="M22.1,25c-2.1-0.9-4.5,0-5.4,2.1c-0.3,0.6-0.4,1.3-0.3,1.9c2.7-0.3,5.1-1.3,7.1-2.9C23.2,25.6,22.7,25.2,22.1,25z"/>
	<path d="M16.4,28.9c0,0.3,0.1,0.7,0.2,1c2.8-0.3,5.4-1.4,7.5-3c-0.2-0.3-0.3-0.6-0.6-0.9C21.5,27.6,19.1,28.7,16.4,28.9z"/>
	<path d="M13.9,25.8c0.9-2.1,0-4.5-2.1-5.4c-2.1-0.9-4.5,0-5.4,2.1c-0.5,1.2-0.4,2.6,0.2,3.7c1.1,0.8,2.4,1.5,3.7,2
		C11.8,28.1,13.2,27.2,13.9,25.8z"/>
	<path d="M8.5,27.9c0.6,0.3,1.2,0.4,1.9,0.3c-1.3-0.5-2.6-1.2-3.7-2C7.1,26.9,7.7,27.5,8.5,27.9z"/>
	<path d="M1.5,15.9c-0.1-0.1-0.3-0.1-0.4-0.1C1.2,18,1.8,20.2,3,22.1c0.2-0.3,0.4-0.6,0.6-0.9C4.4,19.2,3.5,16.8,1.5,15.9z"/>
	<path d="M3,22.1C1.8,20.2,1.2,18,1,15.7c-0.3-0.1-0.7-0.2-1-0.2c0.1,2.7,0.9,5.2,2.2,7.3C2.5,22.6,2.8,22.4,3,22.1z"/>
	<path d="M26.4,20.5c-0.4,0.9-0.4,1.9-0.2,2.8c1.1-1.4,1.9-3.1,2.3-4.9C27.6,18.8,26.8,19.5,26.4,20.5z"/>
	<path d="M28.6,18.4c-0.5,1.8-1.2,3.5-2.3,4.9c0.1,0.4,0.3,0.7,0.5,1.1c1.4-1.8,2.5-3.9,2.9-6.2C29.3,18.1,28.9,18.2,28.6,18.4z"/>
	<path d="M21.4,13.9c-2.1-0.9-4.5,0-5.4,2.1c-0.9,2.1,0,4.5,2.1,5.4c2.1,0.9,4.5,0,5.4-2.1S23.5,14.8,21.4,13.9z"/>
	<ellipse transform="matrix(0.6045 -0.7966 0.7966 0.6045 -6.6255 12.6985)" cx="9.5" cy="13" rx="4.1" ry="4.1"/>
	<path d="M24.7,8.9c-0.9,2.1,0,4.5,2.1,5.4c0.7,0.3,1.5,0.4,2.2,0.3c-0.1-2.8-1-5.4-2.5-7.6C25.7,7.4,25.1,8.1,24.7,8.9z"/>
	<path d="M29,14.6c0.3,0,0.7-0.1,1-0.2c-0.1-2.8-1-5.5-2.5-7.7c-0.3,0.1-0.7,0.2-1,0.4C28,9.2,28.9,11.8,29,14.6z"/>
	<path d="M21.9,7.7c0.9-2.1,0-4.5-2.1-5.4c-2.1-0.9-4.5,0-5.4,2.1c-0.9,2.1,0,4.5,2.1,5.4C18.5,10.6,20.9,9.7,21.9,7.7z"/>
	<path d="M11.5,3.1c0.2-0.6,0.3-1.2,0.3-1.7C9.4,1.9,7.2,3.1,5.5,4.8c0.2,0.1,0.4,0.3,0.7,0.4C8.2,6.1,10.6,5.2,11.5,3.1z"/>
	<path d="M5.5,4.8c1.8-1.7,4-2.9,6.4-3.4c0-0.3-0.1-0.7-0.2-1C9,1,6.6,2.3,4.7,4.1C4.9,4.4,5.2,4.6,5.5,4.8z"/>
</g>
</svg>
